<svg xmlns="http://www.w3.org/2000/svg" width="18.037" height="15.7" viewBox="0 0 18.037 15.7">
  <path id="icon-visibility" d="M10.019,5.361A8.01,8.01,0,0,1,17.25,9.87a7.909,7.909,0,0,1-1.976,2.558l1.156,1.156A9.676,9.676,0,0,0,19.037,9.87a9.7,9.7,0,0,0-12-5.682L8.387,5.541A8.287,8.287,0,0,1,10.019,5.361ZM9.141,6.3l1.7,1.7a2.048,2.048,0,0,1,1.049,1.049l1.7,1.7a3.837,3.837,0,0,0,.115-.877A3.676,3.676,0,0,0,10.019,6.18,3.479,3.479,0,0,0,9.141,6.3ZM1.828,3.614l2.2,2.2A9.623,9.623,0,0,0,1,9.87a9.7,9.7,0,0,0,9.019,6.149,9.617,9.617,0,0,0,3.542-.672l2.8,2.8,1.156-1.156L2.984,2.45ZM7.977,9.763l2.14,2.14a.412.412,0,0,1-.1.016,2.05,2.05,0,0,1-2.05-2.05C7.969,9.829,7.977,9.8,7.977,9.763ZM5.19,6.976,6.624,8.41a3.772,3.772,0,0,0-.3,1.459,3.694,3.694,0,0,0,5.141,3.394l.8.8a8.553,8.553,0,0,1-2.255.312A8.01,8.01,0,0,1,2.787,9.87a8.118,8.118,0,0,1,2.4-2.894Z" transform="translate(-1 -2.45)" fill="#919191"/>
</svg>
